HIERARCHY
ROOT hip
{
	OFFSET 0.000000 0.000000 0.000000 
	CHANNELS 6 Xposition Yposition Zposition Xrotation Zrotation Yrotation
	JOINT abdomen
	{
		OFFSET 0.000000 3.402643 0.000000 
		CHANNELS 3 Xrotation Zrotation Yrotation
		JOINT chest
		{
			OFFSET 0.000000 8.438565 -0.680529 
			CHANNELS 3 Xrotation Zrotation Yrotation
			JOINT neck
			{
				OFFSET 0.000000 10.207942 -0.272212 
				CHANNELS 3 Xrotation Zrotation Yrotation
				JOINT head
				{
					OFFSET 0.000000 3.130431 0.000000 
					CHANNELS 3 Xrotation Zrotation Yrotation
					End Site
					{
						OFFSET 0.000000 3.130435 0.000000 
					}
				}
			}
			JOINT lCollar
			{
				OFFSET 3.470700 6.669187 -0.816635 
				CHANNELS 3 Yrotation Zrotation Xrotation
				JOINT lShldr
				{
					OFFSET 3.198488 0.000000 0.000000 
					CHANNELS 3 Zrotation Yrotation Xrotation
					JOINT lForeArm
					{
						OFFSET 10.139888 0.000000 0.000000 
						CHANNELS 3 Yrotation Zrotation Xrotation
						JOINT lHand
						{
							OFFSET 8.370511 0.000000 0.000000 
							CHANNELS 3 Zrotation Yrotation Xrotation
							End Site
							{
								OFFSET 4.083176 0.000000 0.000000 
							}
						}
					}
				}
			}
			JOINT rCollar
			{
				OFFSET -3.470700 6.669187 -0.816635 
				CHANNELS 3 Yrotation Zrotation Xrotation
				JOINT rShldr
				{
					OFFSET -3.198488 0.000000 0.000000 
					CHANNELS 3 Zrotation Yrotation Xrotation
					JOINT rForeArm
					{
						OFFSET -10.139888 0.000000 0.000000 
						CHANNELS 3 Yrotation Zrotation Xrotation
						JOINT rHand
						{
							OFFSET -8.370511 0.000000 0.000000 
							CHANNELS 3 Zrotation Yrotation Xrotation
							End Site
							{
								OFFSET -4.083176 0.000000 0.000000 
							}
						}
					}
				}
			}
		}
	}
	JOINT lThigh
	{
		OFFSET 5.308129 -1.633274 1.361059 
		CHANNELS 3 Xrotation Zrotation Yrotation
		JOINT lShin
		{
			OFFSET -2.041588 -20.007561 0.000000 
			CHANNELS 3 Xrotation Zrotation Yrotation
			JOINT lFoot
			{
				OFFSET 0.000000 -19.190928 -1.224953 
				CHANNELS 3 Xrotation Yrotation Zrotation
				End Site
				{
					OFFSET 0.000000 -2.449906 4.627600 
				}
			}
		}
	}
	JOINT rThigh
	{
		OFFSET -5.308129 -1.633274 1.361059 
		CHANNELS 3 Xrotation Zrotation Yrotation
		JOINT rShin
		{
			OFFSET 2.041588 -20.007561 0.000000 
			CHANNELS 3 Xrotation Zrotation Yrotation
			JOINT rFoot
			{
				OFFSET 0.000000 -19.190928 -1.224953 
				CHANNELS 3 Xrotation Yrotation Zrotation
				End Site
				{
					OFFSET 0.000000 -2.449906 4.627600 
				}
			}
		}
	}
}
MOTION
Frames: 10
Frame Time: 0.016667
71.252983 43.145542 -58.866199 6.027780 6.711080 -18.169100 -18.655399 0.666897 -2.697550 16.891701 6.325030 -1.478210 16.936800 8.470110 0.538503 14.623400 10.157200 0.497355 2.000000 -2.000000 0.000000 -85.460701 4.278990 159.804993 46.797298 -0.308443 0.099714 0.045926 -0.020319 -144.197006 -2.000000 2.000000 0.000000 76.372101 -9.007860 151.884003 -113.945999 0.163322 0.106270 -0.079795 0.086621 -169.597000 -9.376930 -0.297580 3.828581 29.328873 3.113043 2.082430 -14.395989 3.590726 1.534274 -34.240261 -0.911831 -6.068630 37.572605 -2.021530 -2.944295 -14.722562 -1.634101 -0.082890 
70.913284 43.205101 -57.802464 4.659940 8.439210 -18.122000 -18.252300 0.098216 -2.601180 17.550100 6.319480 -1.492410 17.178200 7.660020 0.492311 14.720900 9.827150 0.453911 2.000000 -2.000000 0.000000 -85.246399 3.655640 160.539001 46.445801 -0.309053 0.099138 0.046271 -0.022866 -145.115005 -2.000000 2.000000 0.000000 76.128998 -8.892620 152.802994 -114.082001 0.163045 0.106146 -0.080643 0.087929 -170.154007 -6.672234 -2.816208 3.577989 28.234838 3.199702 1.989132 -13.961963 4.024034 1.570038 -33.825668 -3.129601 -6.861119 35.617905 -2.200306 -2.780774 -11.980166 -0.944709 0.372127 
70.490662 43.209347 -56.866352 4.031880 8.796880 -18.229900 -17.776600 0.110107 -2.401570 18.139500 6.332300 -1.379480 16.629000 8.052320 0.403040 14.547600 9.977150 0.450236 2.000000 -2.000000 0.000000 -85.178398 3.061230 161.115997 46.865700 -0.308324 0.099825 0.046050 -0.021268 -144.539001 -2.000000 2.000000 0.000000 76.510597 -8.045150 153.809998 -114.580002 0.162040 0.105692 -0.082376 0.100286 -171.266998 -4.426630 -3.409562 3.370603 26.861862 3.446149 1.853846 -12.899612 3.571796 1.400840 -33.714752 -3.435763 -8.045471 35.251389 -2.244701 -2.743271 -9.059894 -1.483852 0.623175 
70.039284 43.110477 -56.026508 3.891710 8.622950 -18.409100 -18.042801 0.278437 -2.286550 17.639200 6.193200 -1.320080 17.080099 7.772290 0.417862 14.674800 9.924800 0.404751 2.000000 -2.000000 0.000000 -85.062103 3.757130 162.238007 47.412601 -0.307367 0.100713 0.046248 -0.022704 -145.057007 -2.000000 2.000000 0.000000 76.529404 -7.985160 153.156006 -113.964996 0.163282 0.106252 -0.085622 0.089917 -166.891998 -3.640283 -3.099320 3.224095 27.774763 3.550769 1.870116 -12.541440 3.397474 1.342244 -33.530235 -2.860895 -9.112812 35.774364 -2.207306 -2.789454 -7.806464 -4.568728 0.441593 
69.522758 42.990467 -55.286205 4.203730 8.249540 -18.740700 -18.437599 0.905383 -2.338670 17.222900 6.756230 -1.280880 16.631399 7.126560 0.449007 14.264000 9.803820 0.329614 2.000000 -2.000000 0.000000 -85.716599 4.372540 162.313995 47.676201 -0.306903 0.101138 0.046198 -0.022352 -144.929993 -2.000000 2.000000 0.000000 76.110603 -7.831080 154.171997 -114.746002 0.161705 0.105538 -0.086241 0.090980 -167.332001 -4.106847 -2.130332 2.759441 30.443027 3.509999 2.043294 -11.977039 2.316195 1.113564 -33.212067 -1.524992 -9.862317 36.329895 -2.118235 -2.837606 -9.434007 -7.091450 -0.117434 
68.972748 43.025146 -54.394794 3.735240 8.780430 -18.539600 -18.091400 0.327000 -2.323890 17.875799 6.028600 -1.306620 16.947599 7.651360 0.660007 14.469300 10.008600 0.461457 2.000000 -2.000000 0.000000 -84.876701 4.030950 162.403000 47.705502 -0.306852 0.101185 0.046123 -0.021810 -144.733994 -2.000000 2.000000 0.000000 77.212601 -6.617920 153.130005 -114.960999 0.161273 0.105338 -0.080569 0.070668 -163.054993 -4.043748 -2.355583 2.982108 32.556061 3.463252 2.168410 -9.943520 1.405547 1.044964 -32.024769 -1.732174 -9.923820 37.232414 -2.116167 -2.894784 -10.994022 -7.088504 -0.368667 
68.399597 42.978222 -53.454868 3.074680 8.961900 -18.602400 -17.554001 -0.120125 -2.181680 18.712799 5.300000 -1.253630 16.872299 7.632450 0.571051 14.465000 9.883790 0.458335 2.000000 -2.000000 0.000000 -84.076202 3.670420 162.755997 47.715302 -0.306834 0.101200 0.046225 -0.022541 -144.998001 -2.000000 2.000000 0.000000 78.619400 -4.998600 153.962997 -115.137001 0.160921 0.105173 -0.082537 0.074546 -164.606995 -3.885588 -2.320312 2.333201 35.073574 3.385084 2.327352 -6.606974 0.018315 1.033293 -30.375357 -1.659328 -8.867561 37.869564 -2.110743 -2.917657 -12.793559 -6.830184 -0.705676 
67.782860 42.963531 -52.672878 3.745780 7.815510 -18.942499 -17.869400 0.743699 -2.351060 18.396900 5.865000 -1.226500 17.237499 7.203800 0.853490 14.562800 9.842080 0.546183 2.000000 -2.000000 0.000000 -84.993896 4.196700 162.285995 47.813000 -0.306662 0.101357 0.046145 -0.021973 -144.792999 -2.000000 2.000000 0.000000 78.189400 -3.846030 153.858994 -115.459000 0.160275 0.104868 -0.080365 0.070251 -162.888000 -5.813233 -0.247476 2.095290 39.129925 3.199576 2.574975 -1.994783 -1.229908 1.443508 -29.530043 0.389748 -8.127558 37.608555 -2.065069 -2.928377 -13.686088 -7.173911 -0.999088 
67.223190 42.939545 -51.890446 4.364600 6.563110 -19.207100 -17.979601 1.055750 -2.352890 18.419300 5.103890 -1.146510 16.906900 7.259990 0.936467 14.306500 9.889010 0.566550 2.000000 -2.000000 0.000000 -85.013199 4.410830 161.973007 47.373501 -0.307436 0.100650 0.046379 -0.023597 -145.378998 -2.000000 2.000000 0.000000 78.384598 -2.976760 153.802002 -115.791000 0.159612 0.104550 -0.079246 0.067906 -161.960999 -8.424348 1.746389 1.073478 44.023125 2.888478 2.892220 4.882942 -1.616413 2.219506 -28.382662 2.371051 -8.182563 36.857761 -2.018170 -2.920903 -14.286008 -7.671724 -1.316375 
66.700821 43.027206 -51.054420 4.712050 4.535460 -19.391800 -18.122700 1.710510 -2.468950 17.872000 4.643360 -1.115210 17.459801 6.498020 0.784885 14.570300 9.476610 0.489057 2.000000 -2.000000 0.000000 -85.403198 4.574790 161.063995 46.855900 -0.308341 0.099809 0.046157 -0.022054 -144.822006 -2.000000 2.000000 0.000000 78.570198 -2.244740 153.988998 -116.171997 0.158853 0.104180 -0.078300 0.065843 -161.149994 -10.436117 4.236461 0.725427 49.278324 2.575801 3.178064 9.695489 -2.549824 2.926059 -26.330124 4.729463 -9.151146 35.730915 -2.012651 -2.867166 -14.970199 -7.613637 -1.480162 
